<?xml version="1.0" encoding="UTF-8"?>
<!DOCTYPE svg PUBLIC "-//W3C//DTD SVG 1.1//EN" "http://www.w3.org/Graphics/SVG/1.1/DTD/svg11.dtd">
<svg xmlns="http://www.w3.org/2000/svg" xmlns:xlink="http://www.w3.org/1999/xlink">
    <symbol id="plyr-airplay" viewBox="0 0 18 18">
        <path
            d="M16 1H2a1 1 0 00-1 1v10a1 1 0 001 1h3v-2H3V3h12v8h-2v2h3a1 1 0 001-1V2a1 1 0 00-1-1z" />
        <path d="M4 17h10l-5-6z" />
    </symbol>
    <symbol id="plyr-captions-off" viewBox="0 0 18 18">
        <path
            d="M1 1c-.6 0-1 .4-1 1v11c0 .6.4 1 1 1h4.6l2.7 2.7c.2.2.4.3.7.3.3 0 .5-.1.7-.3l2.7-2.7H17c.6 0 1-.4 1-1V2c0-.6-.4-1-1-1H1zm4.52 10.15c1.99 0 3.01-1.32 3.28-2.41l-1.29-.39c-.19.66-.78 1.45-1.99 1.45-1.14 0-2.2-.83-2.2-2.34 0-1.61 1.12-2.37 2.18-2.37 1.23 0 1.78.75 1.95 1.43l1.3-.41C8.47 4.96 7.46 3.76 5.5 3.76c-1.9 0-3.61 1.44-3.61 3.7 0 2.26 1.65 3.69 3.63 3.69zm7.57 0c1.99 0 3.01-1.32 3.28-2.41l-1.29-.39c-.19.66-.78 1.45-1.99 1.45-1.14 0-2.2-.83-2.2-2.34 0-1.61 1.12-2.37 2.18-2.37 1.23 0 1.78.75 1.95 1.43l1.3-.41c-.28-1.15-1.29-2.35-3.25-2.35-1.9 0-3.61 1.44-3.61 3.7 0 2.26 1.65 3.69 3.63 3.69z"
            fill-rule="evenodd" fill-opacity=".5" />
    </symbol>
    <symbol id="plyr-captions-on" viewBox="0 0 18 18">
        <path
            d="M1 1c-.6 0-1 .4-1 1v11c0 .6.4 1 1 1h4.6l2.7 2.7c.2.2.4.3.7.3.3 0 .5-.1.7-.3l2.7-2.7H17c.6 0 1-.4 1-1V2c0-.6-.4-1-1-1H1zm4.52 10.15c1.99 0 3.01-1.32 3.28-2.41l-1.29-.39c-.19.66-.78 1.45-1.99 1.45-1.14 0-2.2-.83-2.2-2.34 0-1.61 1.12-2.37 2.18-2.37 1.23 0 1.78.75 1.95 1.43l1.3-.41C8.47 4.96 7.46 3.76 5.5 3.76c-1.9 0-3.61 1.44-3.61 3.7 0 2.26 1.65 3.69 3.63 3.69zm7.57 0c1.99 0 3.01-1.32 3.28-2.41l-1.29-.39c-.19.66-.78 1.45-1.99 1.45-1.14 0-2.2-.83-2.2-2.34 0-1.61 1.12-2.37 2.18-2.37 1.23 0 1.78.75 1.95 1.43l1.3-.41c-.28-1.15-1.29-2.35-3.25-2.35-1.9 0-3.61 1.44-3.61 3.7 0 2.26 1.65 3.69 3.63 3.69z"
            fill-rule="evenodd" />
    </symbol>
    <symbol id="plyr-download" viewBox="0 0 18 18">
        <path
            d="M9 13c.3 0 .5-.1.7-.3L15.4 7 14 5.6l-4 4V1H8v8.6l-4-4L2.6 7l5.7 5.7c.2.2.4.3.7.3zm-7 2h14v2H2z" />
    </symbol>
    <symbol id="plyr-enter-fullscreen" viewBox="0 0 18 18">
        <path d="M10 3h3.6l-4 4L11 8.4l4-4V8h2V1h-7zM7 9.6l-4 4V10H1v7h7v-2H4.4l4-4z" />
    </symbol>
    <symbol id="plyr-exit-fullscreen" viewBox="0 0 18 18">
        <path d="M1 12h3.6l-4 4L2 17.4l4-4V17h2v-7H1zM16 .6l-4 4V1h-2v7h7V6h-3.6l4-4z" />
    </symbol>
    <symbol id="plyr-fast-forward" viewBox="0 0 48 48">
        <path
            d="M20.25 32.5q-.55 0-.9-.35t-.35-.9q0-.55.35-.9t.9-.35h5.1v-2.8H20.5q-.65 0-1.075-.425Q19 26.35 19 25.7v-4.75q0-.65.425-1.075.425-.425 1.075-.425h6.1q.5 0 .85.35t.35.85q0 .55-.35.9t-.85.35h-5.1v2.85h4.6q.7 0 1.2.5t.5 1.2v4.35q0 .7-.5 1.2t-1.2.5ZM24 44q-3.75 0-7.025-1.4-3.275-1.4-5.725-3.85Q8.8 36.3 7.4 33.025 6 29.75 6 26q0-3.75 1.4-7.025 1.4-3.275 3.85-5.725 2.45-2.45 5.725-3.85Q20.25 8 24 8h1.05l-2.9-2.9q-.4-.4-.4-1t.45-1.05q.4-.4 1-.4t1.05.4l5.25 5.3q.25.25.35.5.1.25.1.55 0 .3-.1.55-.1.25-.35.5l-5.3 5.3q-.4.4-1 .4t-1-.45q-.45-.4-.45-1t.45-1.05L24.85 11H24q-6.25 0-10.625 4.375T9 26q0 6.25 4.375 10.625T24 41q5.9 0 10.15-3.875t4.8-9.625q.1-.65.5-1.075.4-.425 1.05-.425t1.075.45q.425.45.375 1.05-.55 7-5.675 11.75T24 44Z" />
    </symbol>
    <symbol id="plyr-logo-vimeo" viewBox="0 0 18 18">
        <path
            d="M17 5.3c-.1 1.6-1.2 3.7-3.3 6.4-2.2 2.8-4 4.2-5.5 4.2-.9 0-1.7-.9-2.4-2.6C5 10.9 4.4 6 3 6c-.1 0-.5.3-1.2.8l-.8-1c.8-.7 3.5-3.4 4.7-3.5 1.2-.1 2 .7 2.3 2.5.3 2 .8 6.1 1.8 6.1.9 0 2.5-3.4 2.6-4 .1-.9-.3-1.9-2.3-1.1.8-2.6 2.3-3.8 4.5-3.8 1.7.1 2.5 1.2 2.4 3.3z" />
    </symbol>
    <symbol id="plyr-logo-youtube" viewBox="0 0 18 18">
        <path
            d="M16.8 5.8c-.2-1.3-.8-2.2-2.2-2.4C12.4 3 9 3 9 3s-3.4 0-5.6.4C2 3.6 1.3 4.5 1.2 5.8 1 7.1 1 9 1 9s0 1.9.2 3.2c.2 1.3.8 2.2 2.2 2.4C5.6 15 9 15 9 15s3.4 0 5.6-.4c1.4-.3 2-1.1 2.2-2.4.2-1.3.2-3.2.2-3.2s0-1.9-.2-3.2zM7 12V6l5 3-5 3z" />
    </symbol>
    <symbol id="plyr-muted" viewBox="0 0 18 18">
        <path
            d="M12.4 12.5l2.1-2.1 2.1 2.1 1.4-1.4L15.9 9 18 6.9l-1.4-1.4-2.1 2.1-2.1-2.1L11 6.9 13.1 9 11 11.1zM3.786 6.008H.714C.286 6.008 0 6.31 0 6.76v4.512c0 .452.286.752.714.752h3.072l4.071 3.858c.5.3 1.143 0 1.143-.602V2.752c0-.601-.643-.977-1.143-.601L3.786 6.008z" />
    </symbol>
    <symbol id="plyr-pause" viewBox="0 0 18 18">
        <path
            d="M6 1H3c-.6 0-1 .4-1 1v14c0 .6.4 1 1 1h3c.6 0 1-.4 1-1V2c0-.6-.4-1-1-1zm6 0c-.6 0-1 .4-1 1v14c0 .6.4 1 1 1h3c.6 0 1-.4 1-1V2c0-.6-.4-1-1-1h-3z" />
    </symbol>
    <symbol id="plyr-pip" viewBox="0 0 18 18">
        <path d="M13.293 3.293L7.022 9.564l1.414 1.414 6.271-6.271L17 7V1h-6z" />
        <path d="M13 15H3V5h5V3H2a1 1 0 00-1 1v12a1 1 0 001 1h12a1 1 0 001-1v-6h-2v5z" />
    </symbol>
    <symbol id="plyr-play" viewBox="0 0 18 18">
        <path
            d="M15.562 8.1L3.87.225c-.818-.562-1.87 0-1.87.9v15.75c0 .9 1.052 1.462 1.87.9L15.563 9.9c.584-.45.584-1.35 0-1.8z" />
    </symbol>
    <symbol id="plyr-restart" viewBox="0 0 18 18">
        <path
            d="M9.7 1.2l.7 6.4 2.1-2.1c1.9 1.9 1.9 5.1 0 7-.9 1-2.2 1.5-3.5 1.5-1.3 0-2.6-.5-3.5-1.5-1.9-1.9-1.9-5.1 0-7 .6-.6 1.4-1.1 2.3-1.3l-.6-1.9C6 2.6 4.9 3.2 4 4.1 1.3 6.8 1.3 11.2 4 14c1.3 1.3 3.1 2 4.9 2 1.9 0 3.6-.7 4.9-2 2.7-2.7 2.7-7.1 0-9.9L16 1.9l-6.3-.7z" />
    </symbol>
    <symbol id="plyr-rewind" viewBox="0 0 48 48">
        <path
            d="M20.25 32.5q-.55 0-.9-.35t-.35-.9q0-.55.35-.9t.9-.35h5.1v-2.8H20.5q-.65 0-1.075-.425Q19 26.35 19 25.7v-4.75q0-.65.425-1.075.425-.425 1.075-.425h6.1q.5 0 .85.325t.35.875q0 .55-.325.9t-.875.35h-5.1v2.85h4.6q.7 0 1.2.5t.5 1.2v4.35q0 .7-.5 1.2t-1.2.5ZM24 44q-7.15 0-12.275-4.75T6.05 27.5q-.05-.6.375-1.05Q6.85 26 7.5 26q.6 0 1.025.425.425.425.525 1.075.55 5.75 4.8 9.625T24 41q6.25 0 10.625-4.375T39 26q0-6.25-4.25-10.625T24.25 11h-1.1l2.6 2.6q.45.45.45 1.05 0 .6-.45 1.05-.45.45-1.05.45-.6 0-1.05-.45l-5.25-5.25q-.25-.25-.35-.5-.1-.25-.1-.55 0-.3.1-.55.1-.25.35-.5l5.3-5.3q.4-.4 1-.4t1.05.4q.4.45.4 1.05 0 .6-.4 1L22.85 8H24q3.75 0 7.025 1.4 3.275 1.4 5.725 3.85 2.45 2.45 3.85 5.725Q42 22.25 42 26q0 3.75-1.4 7.025-1.4 3.275-3.85 5.725-2.45 2.45-5.725 3.85Q27.75 44 24 44Z" />
    </symbol>
    <symbol id="plyr-settings" viewBox="0 0 18 18">
        <path
            d="M16.135 7.784a2 2 0 01-1.23-2.969c.322-.536.225-.998-.094-1.316l-.31-.31c-.318-.318-.78-.415-1.316-.094a2 2 0 01-2.969-1.23C10.065 1.258 9.669 1 9.219 1h-.438c-.45 0-.845.258-.997.865a2 2 0 01-2.969 1.23c-.536-.322-.999-.225-1.317.093l-.31.31c-.318.318-.415.781-.093 1.317a2 2 0 01-1.23 2.969C1.26 7.935 1 8.33 1 8.781v.438c0 .45.258.845.865.997a2 2 0 011.23 2.969c-.322.536-.225.998.094 1.316l.31.31c.319.319.782.415 1.316.094a2 2 0 012.969 1.23c.151.607.547.865.997.865h.438c.45 0 .845-.258.997-.865a2 2 0 012.969-1.23c.535.321.997.225 1.316-.094l.31-.31c.318-.318.415-.781.094-1.316a2 2 0 011.23-2.969c.607-.151.865-.547.865-.997v-.438c0-.451-.26-.846-.865-.997zM9 12a3 3 0 110-6 3 3 0 010 6z" />
    </symbol>
    <symbol id="plyr-volume" viewBox="0 0 18 18">
        <path
            d="M15.6 3.3c-.4-.4-1-.4-1.4 0-.4.4-.4 1 0 1.4C15.4 5.9 16 7.4 16 9c0 1.6-.6 3.1-1.8 4.3-.4.4-.4 1 0 1.4.2.2.5.3.7.3.3 0 .5-.1.7-.3C17.1 13.2 18 11.2 18 9s-.9-4.2-2.4-5.7z" />
        <path
            d="M11.282 5.282a.909.909 0 000 1.316c.735.735.995 1.458.995 2.402 0 .936-.425 1.917-.995 2.487a.909.909 0 000 1.316c.145.145.636.262 1.018.156a.725.725 0 00.298-.156C13.773 11.733 14.13 10.16 14.13 9c0-.17-.002-.34-.011-.51-.053-.992-.319-2.005-1.522-3.208a.909.909 0 00-1.316 0zm-7.496.726H.714C.286 6.008 0 6.31 0 6.76v4.512c0 .452.286.752.714.752h3.072l4.071 3.858c.5.3 1.143 0 1.143-.602V2.752c0-.601-.643-.977-1.143-.601L3.786 6.008z" />
    </symbol>
    <symbol id="plyr-audios" viewBox="0 96 960 960">
        <path
            d="M531 976q-23 0-33.5-15t-2.5-37l147-390q6-16 22-27t33-11q17 0 33.5 11t22.5 27l150 386q9 23-2 39.5T864 976q-11 0-21-7t-14-18l-33-101H604l-38 102q-4 10-14 17t-21 7Zm95-196h142l-70-194h-2l-70 194ZM289 438q15 26 33 50.5t39 50.5q45-47 75-97.5T487 336H80q-17 0-28.5-11.5T40 296q0-17 11.5-28.5T80 256h240v-40q0-17 11.5-28.5T360 176q17 0 28.5 11.5T400 216v40h240q17 0 28.5 11.5T680 296q0 17-11.5 28.5T640 336h-73q-22 69-58.5 135.5T419 598l98 99-30 81-127-122-173 173q-11 11-27 11t-27-12q-12-11-12-27t12-28l176-176q-26-31-49-62.5T218 470q-12-22-2-38t36-16q11 0 21.5 6.5T289 438Z" />
    </symbol>
</svg>